<?xml version="1.0" encoding="utf-8"?>
<!-- Generator: Adobe Illustrator 22.1.0, SVG Export Plug-In . SVG Version: 6.00 Build 0)  -->
<svg version="1.1" id="Layer_1" xmlns="http://www.w3.org/2000/svg" xmlns:xlink="http://www.w3.org/1999/xlink" x="0px" y="0px"
	 viewBox="0 0 1024 512" style="enable-background:new 0 0 1024 512;" xml:space="preserve">
<style type="text/css">
	.st0{fill:#8BB27A;}
</style>
<path class="st0" d="M526.9,98.8c-94.1,0-167.9,86.6-146.2,184.5c12.3,55.6,56.1,99.4,111.7,111.7c97.9,21.7,184.5-52.1,184.5-146.2
	c0-8.4-0.7-16.6-2.2-25c-4.5-8.4-14.5-8.4-14.5-8.4h-21c-6.8,0-12.3-5.5-12.3-12.3v-4.3c0-16.6-16.6-16.6-16.6-16.6h-18.9
	c-8,0-14.4-6.5-14.4-14.4v-2.3c0-16.6-16.6-16.6-16.6-16.6h-1.9c-8.2,0-14.8-6.6-14.8-14.8v-18.6C543.5,98.8,526.9,98.8,526.9,98.8
	 M485.2,148.8c14.4,0,25.9,12.2,24.9,26.8c-0.9,12.3-10.9,22.3-23.2,23.2c-14.6,1-26.8-10.5-26.8-24.9
	C460.2,160,471.4,148.8,485.2,148.8 M435.2,215.5c13.8,0,25,11.2,25,25s-11.2,25-25,25l0,0c-13.8,0-25-11.2-25-25l0,0
	C410.2,226.7,421.4,215.5,435.2,215.5L435.2,215.5 M518.5,232.2c14.4,0,25.9,12.2,24.9,26.8c-0.9,12.3-10.9,22.3-23.2,23.2
	c-14.6,1-26.8-10.5-26.8-24.9C493.5,243.4,504.8,232.2,518.5,232.2 M601.9,265.5c14.4,0,25.9,12.2,24.9,26.8
	c-0.9,12.3-10.9,22.3-23.2,23.2c-14.6,1-26.8-10.5-26.8-24.9C576.9,276.7,588,265.5,601.9,265.5 M508.4,315.5
	c14.6-1,26.8,10.5,26.8,24.9l0,0c0,13.8-11.2,25-25,25l0,0c-14.4,0-25.9-12.2-24.9-26.8C486.1,326.4,496.1,316.4,508.4,315.5z"/>
<path class="st0" d="M526.9,24.8c30.2,0,59.6,5.9,87.2,17.6c26.7,11.3,50.6,27.4,71.2,48s36.7,44.5,48,71.2
	c11.7,27.6,17.6,56.9,17.6,87.2s-5.9,59.6-17.6,87.2c-11.3,26.7-27.4,50.6-48,71.2s-44.5,36.7-71.2,48c-27.6,11.7-57,17.6-87.2,17.6
	s-59.6-5.9-87.2-17.6c-26.7-11.3-50.6-27.4-71.2-48s-36.7-44.5-48-71.2c-11.7-27.6-17.6-57-17.6-87.2s5.9-59.6,17.6-87.2
	c11.3-26.7,27.4-50.6,48-71.2s44.5-36.7,71.2-48C467.3,30.7,496.7,24.8,526.9,24.8 M526.9-0.8C389.1-0.8,277.3,111,277.3,248.8
	s111.8,249.6,249.6,249.6s249.6-111.8,249.6-249.6S664.7-0.8,526.9-0.8z"/>
</svg>
