<?xml version="1.0" encoding="utf-8"?>
<!-- Generator: Adobe Illustrator 22.1.0, SVG Export Plug-In . SVG Version: 6.00 Build 0)  -->
<svg version="1.1" id="Layer_1" xmlns="http://www.w3.org/2000/svg" xmlns:xlink="http://www.w3.org/1999/xlink" x="0px" y="0px"
	 viewBox="0 0 1024 512" style="enable-background:new 0 0 1024 512;" xml:space="preserve">
<style type="text/css">
	.st0{fill:#8BB27A;}
</style>
<path class="st0" d="M512,32c30.2,0,59.6,5.9,87.2,17.6c26.7,11.3,50.6,27.4,71.2,48s36.7,44.5,48,71.2
	c11.7,27.6,17.6,56.9,17.6,87.2s-5.9,59.6-17.6,87.2c-11.3,26.7-27.4,50.6-48,71.2s-44.5,36.7-71.2,48c-27.6,11.7-57,17.6-87.2,17.6
	s-59.6-5.9-87.2-17.6c-26.7-11.3-50.6-27.4-71.2-48s-36.7-44.5-48-71.2c-11.7-27.6-17.6-57-17.6-87.2s5.9-59.6,17.6-87.2
	c11.3-26.7,27.4-50.6,48-71.2s44.5-36.7,71.2-48C452.4,37.9,481.8,32,512,32 M512,6.4C374.2,6.4,262.4,118.2,262.4,256
	S374.2,505.6,512,505.6S761.6,393.8,761.6,256S649.8,6.4,512,6.4z"/>
<path class="st0" d="M481.3,186.8v38.4h-30.8v46.1h30.8v107.6h46.1V271.4h46.1v-46.1h-46.1v-30.7c0-9.2,6.1-15.4,15.3-15.4h30.8
	v-46.1H535C505.9,133.1,481.3,157.6,481.3,186.8L481.3,186.8z"/>
</svg>
