<?xml version="1.0" encoding="utf-8"?>
<!-- Generator: Adobe Illustrator 22.1.0, SVG Export Plug-In . SVG Version: 6.00 Build 0)  -->
<svg version="1.1" id="Layer_1" xmlns="http://www.w3.org/2000/svg" xmlns:xlink="http://www.w3.org/1999/xlink" x="0px" y="0px"
	 viewBox="0 0 841.9 595.3" style="enable-background:new 0 0 841.9 595.3;" xml:space="preserve">
<style type="text/css">
	.st0{fill:#8BB27A;}
</style>
<path class="st0" d="M513.9,205H387.7c-35.5,0-64.4,28.9-64.4,64.4v125c0,35.5,28.9,64.4,64.4,64.4H514c35.5,0,64.4-28.9,64.4-64.4
	v-125C578.3,233.8,549.5,205,513.9,205z M449.5,413.5c-41.5,0-75-33.5-75-75s33.6-75,75-75s75,33.5,75,75S490.9,413.5,449.5,413.5
	L449.5,413.5z M535.3,281.7c-14.2,0-25.7-11.5-25.7-25.7s11.5-25.7,25.7-25.7S561,241.8,561,256
	C560.9,270.2,549.4,281.7,535.3,281.7z M449.5,283.4c-30.4,0-55.2,24.8-55.2,55.2c0,30.4,24.8,55.2,55.2,55.2s55.2-24.8,55.2-55.2
	S479.9,283.4,449.5,283.4L449.5,283.4z M598.1,394.3c0,46.3-37.8,84.2-84.2,84.2H387.7c-46.3,0-84.2-37.8-84.2-84.2v-125
	c0-46.3,37.8-84.2,84.2-84.2H514c46.3,0,84.2,37.9,84.2,84.2v125H598.1z"/>
<path class="st0" d="M450.8,101.7c31,0,61.2,6.1,89.6,18.1c27.4,11.6,52,28.2,73.2,49.3s37.7,45.7,49.3,73.2
	c12,28.4,18.1,58.5,18.1,89.6s-6.1,61.2-18.1,89.6c-11.6,27.4-28.2,52-49.3,73.2c-21.2,21.2-45.7,37.7-73.2,49.3
	c-28.4,12-58.6,18.1-89.6,18.1s-61.2-6.1-89.6-18.1c-27.4-11.6-52-28.2-73.2-49.3c-21.2-21.2-37.7-45.7-49.3-73.2
	c-12-28.4-18.1-58.6-18.1-89.6s6.1-61.2,18.1-89.6c11.6-27.4,28.2-52,49.3-73.2s45.7-37.7,73.2-49.3
	C389.6,107.8,419.8,101.7,450.8,101.7 M450.8,75.4c-141.6,0-256.4,114.9-256.4,256.4s114.9,256.4,256.4,256.4
	s256.4-114.9,256.4-256.4S592.4,75.4,450.8,75.4z"/>
</svg>
